<!DOCTYPE svg PUBLIC "-//W3C//DTD SVG 1.1//EN" "http://www.w3.org/Graphics/SVG/1.1/DTD/svg11.dtd">
<!-- Uploaded to: SVG Repo, www.svgrepo.com, Transformed by: SVG Repo Mixer Tools -->
<svg fill="#ffffff" height="800px" width="800px" version="1.1" id="Icons" xmlns="http://www.w3.org/2000/svg" xmlns:xlink="http://www.w3.org/1999/xlink" viewBox="0 0 32 32" xml:space="preserve" stroke="#ffffff">
<g id="SVGRepo_bgCarrier" stroke-width="0"/>
<g id="SVGRepo_tracerCarrier" stroke-linecap="round" stroke-linejoin="round"/>
<g id="SVGRepo_iconCarrier"> <path d="M29.9,16.5C29.7,16.2,29.4,16,29,16c-2.2,0-4.3,1-5.6,2.8L22.5,20c-1.1,1.3-2.8,2-4.5,2h-3c-0.6,0-1-0.4-1-1s0.4-1,1-1h1.9 c1.6,0,3.1-1.3,3.1-2.9c0,0,0-0.1,0-0.1c0-0.5-0.5-1-1-1h0v-5.1c3.9-0.5,7-3.9,7-7.9c0-0.6-0.4-1-1-1c-2.4,0-4.5,1.1-6,2.7V2 c0-0.6-0.4-1-1-1s-1,0.4-1,1v5.7C15.5,6.1,13.4,5,11,5c-0.6,0-1,0.4-1,1c0,4.1,3.1,7.4,7,7.9V16h-4.1c-3.6,0-6.5,1.6-8.1,4.2 l-2.7,4.2c-0.2,0.3-0.2,0.7,0,1l3,5c0.1,0.2,0.4,0.4,0.6,0.5c0.1,0,0.1,0,0.2,0c0.2,0,0.4-0.1,0.6-0.2c3.8-2.5,8.2-3.8,12.7-3.8 c3.3,0,6.3-1.8,7.9-4.7l2.7-4.8C30,17.2,30,16.8,29.9,16.5z"/> </g>
</svg>