<!DOCTYPE svg PUBLIC "-//W3C//DTD SVG 1.1//EN" "http://www.w3.org/Graphics/SVG/1.1/DTD/svg11.dtd">

<!-- Uploaded to: SVG Repo, www.svgrepo.com, Transformed by: SVG Repo Mixer Tools -->
<svg fill="#ffffff" height="800px" width="800px" version="1.1" id="Icons" xmlns="http://www.w3.org/2000/svg" xmlns:xlink="http://www.w3.org/1999/xlink" viewBox="0 0 32 32" xml:space="preserve" stroke="#ffffff">
strokeLinecap
<g id="SVGRepo_bgCarrier" strokeWidth="0"/>

<g id="SVGRepo_tracerCarrier" stroke-linecap="round" strokeLinejoin="round"/>

<g id="SVGRepo_iconCarrier"> <path d="M32,13c0-0.6-0.4-1-1-1h-5v-2c0-1.7-1.3-3-3-3c-0.6,0-1,0.4-1,1s0.4,1,1,1c0.6,0,1,0.4,1,1v2h-4.2l-2.4-6H19 c0.6,0,1-0.4,1-1s-0.4-1-1-1h-3H7C6.9,4,6.7,4,6.6,4.1c0,0-0.1,0-0.1,0.1c-0.1,0-0.1,0.1-0.2,0.1c0,0-0.1,0.1-0.1,0.1 c0,0.1-0.1,0.1-0.1,0.2c0,0,0,0.1-0.1,0.1c0,0,0,0.1,0,0.1l-1.7,8.3c-1.2,0.5-2.2,1.3-3.1,2.2c-0.4,0.4-0.4,1,0,1.4 c0.4,0.4,1,0.4,1.4,0C4.3,15,6.6,14,9,14c5,0,9,4,9,9c0,0.3,0,0.6,0,0.9c0,0,0,0,0,0.1c0,0,0,0,0,0.1c0,0.1,0,0.1,0,0.2 c0,0.1,0,0.1,0,0.2c0,0.1,0.1,0.1,0.1,0.2c0,0,0.1,0.1,0.1,0.1c0.1,0.1,0.1,0.1,0.2,0.2c0,0,0.1,0.1,0.1,0.1c0.1,0,0.2,0.1,0.3,0.1 c0,0,0.1,0,0.1,0c0,0,0,0,0.1,0c0,0,0,0,0,0h3.1C22,25.3,22,25.7,22,26c0,2.8,2.2,5,5,5s5-2.2,5-5c0-0.5-0.1-1-0.2-1.4 c0.1-0.2,0.2-0.4,0.2-0.6V13z M27,29c-1.7,0-3-1.3-3-3s1.3-3,3-3s3,1.3,3,3S28.7,29,27,29z"/> <path d="M9,15c-4.4,0-8,3.6-8,8s3.6,8,8,8s8-3.6,8-8S13.4,15,9,15z M9,26c-1.7,0-3-1.3-3-3s1.3-3,3-3s3,1.3,3,3S10.7,26,9,26z"/> </g>

</svg>